<svg preserveAspectRatio="none" width="100%" height="100%" overflow="visible" style="display: block;" viewBox="0 0 739 108.305" fill="none" xmlns="http://www.w3.org/2000/svg">
<g id="Portfolio">
<path id="Vector" d="M739 94.7672H725.462V40.6144H739V94.7672ZM725.462 40.6144H684.847V27.0763H725.462V40.6144ZM684.847 108.305V94.7672H725.462V108.305H684.847ZM671.309 94.7672V40.6144H684.847V94.7672H671.309Z" fill="var(--fill-0, #333333)"/>
<path id="Vector_2" d="M619.514 108.305V27.0764H633.052V108.305H619.514ZM633.052 0V13.5382H619.514V0H633.052Z" fill="var(--fill-0, #333333)"/>
<path id="Vector_3" d="M567.719 108.305V0H581.257V108.305H567.719Z" fill="var(--fill-0, #333333)"/>
<path id="Vector_4" d="M529.475 94.7672H515.937V40.6144H529.475V94.7672ZM515.937 40.6144H475.322V27.0763H515.937V40.6144ZM475.322 108.305V94.7672H515.937V108.305H475.322ZM461.784 94.7672V40.6144H475.322V94.7672H461.784Z" fill="var(--fill-0, #333333)"/>
<path id="Vector_5" d="M396.543 108.305V40.6145H383.005V27.0764H396.543V13.5382H410.081V27.0764H423.62V40.6145H410.081V108.305H396.543ZM437.158 13.5382H410.081V0H437.158V13.5382Z" fill="var(--fill-0, #333333)"/>
<path id="Vector_6" d="M358.379 94.7673V108.305H331.303V94.7673H358.379ZM344.841 40.6145H331.303V94.7673H317.764V40.6145H304.226V27.0764H317.764V0H331.303V27.0764H344.841V40.6145Z" fill="var(--fill-0, #333333)"/>
<path id="Vector_7" d="M211.869 108.305V27.0763H225.407V40.6144H238.946V54.1526H225.407V108.305H211.869ZM266.022 40.6144H238.946V27.0763H266.022V40.6144Z" fill="var(--fill-0, #333333)"/>
<path id="Vector_8" d="M173.626 94.7672H160.087V40.6144H173.626V94.7672ZM160.087 40.6144H119.473V27.0763H160.087V40.6144ZM119.473 108.305V94.7672H160.087V108.305H119.473ZM105.935 94.7672V40.6144H119.473V94.7672H105.935Z" fill="var(--fill-0, #333333)"/>
<path id="Vector_9" d="M0 108.305V0H54.1527V13.5382H13.5382V54.1527H54.1527V67.6909H13.5382V108.305H0ZM67.6909 13.5382V54.1527H54.1527V13.5382H67.6909Z" fill="var(--fill-0, #333333)"/>
</g>
</svg>
